<?xml version="1.0" encoding="UTF-8"?>
<svg xmlns="http://www.w3.org/2000/svg" viewBox="0 0 396 163.86">
	<defs>
		<style>
			.cls-1 {
				fill: #fff;
			}

			.cls-1, .cls-2 {
				stroke-width: 1px;
			}

			.cls-2 {
				fill: #fff;
			}
		</style>
	</defs>
	<polygon class="cls-2" points="27.54 91.49 29.41 90.41 45.69 80.98 45.72 80.99 76.42 63.28 76.41 48.1 1.27 91.44 93.54 144 106.24 136.68 82.73 123.18 27.54 91.49"/>
	<polygon class="cls-2" points="79.01 64.78 79.03 99.97 92.06 107.39 92.02 20.48 0 73.56 0 89.18 79 43.62 79.01 64.78"/>
	<polygon class="cls-2" points="94.66 111.85 79.03 102.95 79.03 102.96 76.22 101.35 45.73 83.98 32.73 91.48 107.56 134.44 107.51 27.9 94.61 20.5 94.66 111.85"/>
	<rect class="cls-1" x="395.02" width=".98" height=".98"/>
	<rect class="cls-2" x="126.8" width="4.88" height="163.86"/>
	<path class="cls-2" d="M154.31,73.71h19.26v7.35h-29.22v-6.58l19.01-26.19h-18.98v-7.32h28.83v6.58l-18.9,26.16ZM197.41,81.61c-8.8,0-15.68-4.49-15.68-14.59v-26.05h8.32v24.92c0,6.1,3.25,8.38,7.35,8.38s7.41-2.3,7.41-8.38v-24.92h8.32v26.05c0,10.1-6.91,14.59-15.73,14.59h0ZM251.44,40.97h8.3v40.09h-9.63l-17.76-28.66v28.66h-8.3v-40.09h9.52l17.87,28.49v-28.49h0ZM294.73,40.97v7.32h-9.52v32.77h-8.24v-32.77h-9.57v-7.32h27.33ZM302.39,81.06v-40.09h8.32v40.09h-8.32ZM349.81,40.97h8.3v40.09h-9.63l-17.76-28.66v28.66h-8.3v-40.09h9.52l17.87,28.49v-28.49h0ZM369.85,81.06v-40.09h8.32v40.09h-8.32Z"/>
	<path class="cls-2" d="M180.64,112.13v1.96h-11.9v-1.96h11.9ZM192.08,122.82v-21.09h9.64c3.16,0,5.27,2.11,5.27,4.97v11.15c0,2.86-2.11,4.97-5.27,4.97h-9.64ZM194.34,103.7v17.17h7.38c1.66,0,3.01-1.36,3.01-3.01v-11.15c0-1.66-1.36-3.01-3.01-3.01,0,0-7.38,0-7.38,0ZM211.81,118.16v-11.75c0-2.86,2.11-4.97,5.27-4.97h5.27c3.16,0,5.27,2.11,5.27,4.97v11.75c0,2.86-2.11,4.97-5.27,4.97h-5.27c-3.16,0-5.27-2.11-5.27-4.97ZM225.37,118.16v-11.75c0-1.66-1.36-3.01-3.01-3.01h-5.27c-1.66,0-3.01,1.36-3.01,3.01v11.75c0,1.66,1.36,3.01,3.01,3.01h5.27c1.66,0,3.01-1.36,3.01-3.01ZM239.22,103.7v19.13h-2.26v-19.13h-6.63v-1.96h15.51v1.36l-.6.6s-6.02,0-6.02,0ZM268.29,122.82l-10.24-17.32h-.15l.3,3.92v13.4h-2.26v-21.09h2.41l10.24,17.32h.15l-.3-3.92v-13.4h2.26v21.09h-2.41ZM278.99,122.82h-2.26v-21.09h2.26v21.09ZM297.36,122.82l-10.24-17.32h-.15l.3,3.92v13.4h-2.26v-21.09h2.41l10.24,17.32h.15l-.3-3.92v-13.4h2.26v21.09h-2.41ZM314.38,101.74v16.42c0,2.86-2.11,4.97-5.27,4.97h-6.02v-1.96h6.02c1.66,0,3.01-1.36,3.01-3.01v-16.42h2.26ZM321.76,117.4l-1.81,5.42h-2.26v-.9l7.38-20.18h2.56l7.38,20.18v.9h-2.26l-1.81-5.42h-9.19ZM330.19,115.45l-3.77-10.99h-.15l-3.77,10.99h7.68ZM355.8,112.13v1.96h-11.9v-1.96h11.9Z"/>
</svg>
